<?xml version="1.0" encoding="UTF-8" standalone="no"?>
<!DOCTYPE svg PUBLIC "-//W3C//DTD SVG 1.1//EN"
 "http://www.w3.org/Graphics/SVG/1.1/DTD/svg11.dtd">
<!-- Generated by graphviz version 15.1.0 (20260618.0150)
 -->
<!-- Pages: 1 -->
<svg width="849pt" height="398pt"
 viewBox="0.00 0.00 849.00 398.00" xmlns="http://www.w3.org/2000/svg" xmlns:xlink="http://www.w3.org/1999/xlink">
<g id="graph0" class="graph" transform="scale(1 1) rotate(0) translate(4 393.54)">
<polygon fill="white" stroke="none" points="-4,4 -4,-393.54 844.85,-393.54 844.85,4 -4,4"/>
<text xml:space="preserve" text-anchor="middle" x="420.42" y="-370.34" font-family="Times,serif" font-size="16.00">Greedy Model</text>
<g id="clust1" class="cluster">
<title>clustercounties (2653)</title>
<path fill="none" stroke="black" d="M20,-8C20,-8 291,-8 291,-8 297,-8 303,-14 303,-20 303,-20 303,-342.79 303,-342.79 303,-348.79 297,-354.79 291,-354.79 291,-354.79 20,-354.79 20,-354.79 14,-354.79 8,-348.79 8,-342.79 8,-342.79 8,-20 8,-20 8,-14 14,-8 20,-8"/>
<text xml:space="preserve" text-anchor="middle" x="244.75" y="-15.55" font-family="Times,serif" font-size="16.00">counties (2653)</text>
</g>
<!-- greedy_profession_share -->
<g id="node1" class="node">
<title>greedy_profession_share</title>
<path fill="lightgrey" stroke="black" d="M155.5,-346.79C155.5,-346.79 28.5,-346.79 28.5,-346.79 22.5,-346.79 16.5,-340.79 16.5,-334.79 16.5,-334.79 16.5,-301.29 16.5,-301.29 16.5,-295.29 22.5,-289.29 28.5,-289.29 28.5,-289.29 155.5,-289.29 155.5,-289.29 161.5,-289.29 167.5,-295.29 167.5,-301.29 167.5,-301.29 167.5,-334.79 167.5,-334.79 167.5,-340.79 161.5,-346.79 155.5,-346.79"/>
<text xml:space="preserve" text-anchor="middle" x="92" y="-329.49" font-family="Times,serif" font-size="14.00">greedy_profession_share</text>
<text xml:space="preserve" text-anchor="middle" x="92" y="-312.99" font-family="Times,serif" font-size="14.00">~</text>
<text xml:space="preserve" text-anchor="middle" x="92" y="-296.49" font-family="Times,serif" font-size="14.00">Data</text>
</g>
<!-- mu_logit -->
<g id="node4" class="node">
<title>mu_logit</title>
<polygon fill="none" stroke="black" points="294.12,-229.48 203.88,-229.48 203.88,-171.98 294.12,-171.98 294.12,-229.48"/>
<text xml:space="preserve" text-anchor="middle" x="249" y="-212.18" font-family="Times,serif" font-size="14.00">mu_logit</text>
<text xml:space="preserve" text-anchor="middle" x="249" y="-195.68" font-family="Times,serif" font-size="14.00">~</text>
<text xml:space="preserve" text-anchor="middle" x="249" y="-179.18" font-family="Times,serif" font-size="14.00">Deterministic</text>
</g>
<!-- greedy_profession_share&#45;&gt;mu_logit -->
<g id="edge1" class="edge">
<title>greedy_profession_share&#45;&gt;mu_logit</title>
<path fill="none" stroke="black" d="M130.41,-288.83C151.87,-273.07 178.8,-253.29 201.57,-236.56"/>
<polygon fill="black" stroke="black" points="203.51,-239.48 209.5,-230.74 199.37,-233.84 203.51,-239.48"/>
</g>
<!-- flpr_logit -->
<g id="node2" class="node">
<title>flpr_logit</title>
<ellipse fill="lightgrey" stroke="black" cx="248" cy="-83.41" rx="47.38" ry="40.66"/>
<text xml:space="preserve" text-anchor="middle" x="248" y="-94.86" font-family="Times,serif" font-size="14.00">flpr_logit</text>
<text xml:space="preserve" text-anchor="middle" x="248" y="-78.36" font-family="Times,serif" font-size="14.00">~</text>
<text xml:space="preserve" text-anchor="middle" x="248" y="-61.86" font-family="Times,serif" font-size="14.00">Normal</text>
</g>
<!-- childcare_burden -->
<g id="node3" class="node">
<title>childcare_burden</title>
<path fill="lightgrey" stroke="black" d="M282.88,-346.79C282.88,-346.79 197.12,-346.79 197.12,-346.79 191.12,-346.79 185.12,-340.79 185.12,-334.79 185.12,-334.79 185.12,-301.29 185.12,-301.29 185.12,-295.29 191.12,-289.29 197.12,-289.29 197.12,-289.29 282.88,-289.29 282.88,-289.29 288.88,-289.29 294.88,-295.29 294.88,-301.29 294.88,-301.29 294.88,-334.79 294.88,-334.79 294.88,-340.79 288.88,-346.79 282.88,-346.79"/>
<text xml:space="preserve" text-anchor="middle" x="240" y="-329.49" font-family="Times,serif" font-size="14.00">childcare_burden</text>
<text xml:space="preserve" text-anchor="middle" x="240" y="-312.99" font-family="Times,serif" font-size="14.00">~</text>
<text xml:space="preserve" text-anchor="middle" x="240" y="-296.49" font-family="Times,serif" font-size="14.00">Data</text>
</g>
<!-- childcare_burden&#45;&gt;mu_logit -->
<g id="edge2" class="edge">
<title>childcare_burden&#45;&gt;mu_logit</title>
<path fill="none" stroke="black" d="M242.2,-288.83C243.33,-274.35 244.73,-256.47 245.96,-240.69"/>
<polygon fill="black" stroke="black" points="249.41,-241.4 246.7,-231.15 242.44,-240.85 249.41,-241.4"/>
</g>
<!-- mu_logit&#45;&gt;flpr_logit -->
<g id="edge8" class="edge">
<title>mu_logit&#45;&gt;flpr_logit</title>
<path fill="none" stroke="black" d="M248.76,-171.52C248.66,-160.69 248.55,-147.98 248.44,-135.66"/>
<polygon fill="black" stroke="black" points="251.95,-136 248.36,-126.03 244.95,-136.06 251.95,-136"/>
</g>
<!-- sigma -->
<g id="node5" class="node">
<title>sigma</title>
<ellipse fill="none" stroke="black" cx="368" cy="-200.73" rx="55.86" ry="40.66"/>
<text xml:space="preserve" text-anchor="middle" x="368" y="-212.18" font-family="Times,serif" font-size="14.00">sigma</text>
<text xml:space="preserve" text-anchor="middle" x="368" y="-195.68" font-family="Times,serif" font-size="14.00">~</text>
<text xml:space="preserve" text-anchor="middle" x="368" y="-179.18" font-family="Times,serif" font-size="14.00">Halfnormal</text>
</g>
<!-- sigma&#45;&gt;flpr_logit -->
<g id="edge7" class="edge">
<title>sigma&#45;&gt;flpr_logit</title>
<path fill="none" stroke="black" d="M334.57,-167.6C319.94,-153.55 302.68,-136.95 287.42,-122.29"/>
<polygon fill="black" stroke="black" points="289.92,-119.83 280.28,-115.43 285.06,-124.88 289.92,-119.83"/>
</g>
<!-- b_childcare_burden -->
<g id="node6" class="node">
<title>b_childcare_burden</title>
<ellipse fill="none" stroke="black" cx="400" cy="-318.04" rx="87.15" ry="40.66"/>
<text xml:space="preserve" text-anchor="middle" x="400" y="-329.49" font-family="Times,serif" font-size="14.00">b_childcare_burden</text>
<text xml:space="preserve" text-anchor="middle" x="400" y="-312.99" font-family="Times,serif" font-size="14.00">~</text>
<text xml:space="preserve" text-anchor="middle" x="400" y="-296.49" font-family="Times,serif" font-size="14.00">Normal</text>
</g>
<!-- b_childcare_burden&#45;&gt;mu_logit -->
<g id="edge3" class="edge">
<title>b_childcare_burden&#45;&gt;mu_logit</title>
<path fill="none" stroke="black" d="M355.1,-282.76C336.13,-268.26 314.05,-251.4 294.96,-236.82"/>
<polygon fill="black" stroke="black" points="297.13,-234.08 287.06,-230.79 292.88,-239.64 297.13,-234.08"/>
</g>
<!-- b_interaction -->
<g id="node7" class="node">
<title>b_interaction</title>
<ellipse fill="none" stroke="black" cx="567" cy="-318.04" rx="61.7" ry="40.66"/>
<text xml:space="preserve" text-anchor="middle" x="567" y="-329.49" font-family="Times,serif" font-size="14.00">b_interaction</text>
<text xml:space="preserve" text-anchor="middle" x="567" y="-312.99" font-family="Times,serif" font-size="14.00">~</text>
<text xml:space="preserve" text-anchor="middle" x="567" y="-296.49" font-family="Times,serif" font-size="14.00">Normal</text>
</g>
<!-- b_interaction&#45;&gt;mu_logit -->
<g id="edge5" class="edge">
<title>b_interaction&#45;&gt;mu_logit</title>
<path fill="none" stroke="black" d="M522.59,-289.37C514,-284.85 504.9,-280.6 496,-277.38 413.94,-247.72 383.06,-276.08 303,-241.38 299.26,-239.76 295.53,-237.84 291.88,-235.73"/>
<polygon fill="black" stroke="black" points="294.05,-232.97 283.72,-230.6 290.32,-238.89 294.05,-232.97"/>
</g>
<!-- b0 -->
<g id="node8" class="node">
<title>b0</title>
<ellipse fill="none" stroke="black" cx="688" cy="-318.04" rx="41.01" ry="40.66"/>
<text xml:space="preserve" text-anchor="middle" x="688" y="-329.49" font-family="Times,serif" font-size="14.00">b0</text>
<text xml:space="preserve" text-anchor="middle" x="688" y="-312.99" font-family="Times,serif" font-size="14.00">~</text>
<text xml:space="preserve" text-anchor="middle" x="688" y="-296.49" font-family="Times,serif" font-size="14.00">Normal</text>
</g>
<!-- b0&#45;&gt;mu_logit -->
<g id="edge4" class="edge">
<title>b0&#45;&gt;mu_logit</title>
<path fill="none" stroke="black" d="M658.54,-289.31C652.17,-284.62 645.18,-280.32 638,-277.38 499.43,-220.62 442.6,-295.57 303,-241.38 299.08,-239.86 295.2,-237.98 291.41,-235.87"/>
<polygon fill="black" stroke="black" points="293.3,-232.93 282.95,-230.64 289.61,-238.88 293.3,-232.93"/>
</g>
<!-- b_greedy -->
<g id="node9" class="node">
<title>b_greedy</title>
<ellipse fill="none" stroke="black" cx="794" cy="-318.04" rx="46.85" ry="40.66"/>
<text xml:space="preserve" text-anchor="middle" x="794" y="-329.49" font-family="Times,serif" font-size="14.00">b_greedy</text>
<text xml:space="preserve" text-anchor="middle" x="794" y="-312.99" font-family="Times,serif" font-size="14.00">~</text>
<text xml:space="preserve" text-anchor="middle" x="794" y="-296.49" font-family="Times,serif" font-size="14.00">Normal</text>
</g>
<!-- b_greedy&#45;&gt;mu_logit -->
<g id="edge6" class="edge">
<title>b_greedy&#45;&gt;mu_logit</title>
<path fill="none" stroke="black" d="M760.68,-289.18C753.57,-284.5 745.84,-280.24 738,-277.38 555.73,-210.98 484.69,-309.36 303,-241.38 298.89,-239.85 294.82,-237.9 290.86,-235.7"/>
<polygon fill="black" stroke="black" points="292.95,-232.87 282.6,-230.59 289.26,-238.83 292.95,-232.87"/>
</g>
</g>
</svg>
