<?xml version="1.0" encoding="UTF-8" standalone="no"?>
<!DOCTYPE svg PUBLIC "-//W3C//DTD SVG 1.1//EN"
 "http://www.w3.org/Graphics/SVG/1.1/DTD/svg11.dtd">
<!-- Generated by graphviz version 15.1.0 (20260618.0150)
 -->
<!-- Pages: 1 -->
<svg width="449pt" height="496pt"
 viewBox="0.00 0.00 449.00 496.00" xmlns="http://www.w3.org/2000/svg" xmlns:xlink="http://www.w3.org/1999/xlink">
<g id="graph0" class="graph" transform="scale(1 1) rotate(0) translate(4 491.54)">
<polygon fill="white" stroke="none" points="-4,4 -4,-491.54 445.46,-491.54 445.46,4 -4,4"/>
<text xml:space="preserve" text-anchor="middle" x="220.73" y="-466.44" font-family="Times,serif" font-size="18.00">Naive Model</text>
<g id="clust1" class="cluster">
<title>clustercounties (2653)</title>
<path fill="none" stroke="black" d="M134.45,-8C134.45,-8 239.45,-8 239.45,-8 245.45,-8 251.45,-14 251.45,-20 251.45,-20 251.45,-438.54 251.45,-438.54 251.45,-444.54 245.45,-450.54 239.45,-450.54 239.45,-450.54 134.45,-450.54 134.45,-450.54 128.45,-450.54 122.45,-444.54 122.45,-438.54 122.45,-438.54 122.45,-20 122.45,-20 122.45,-14 128.45,-8 134.45,-8"/>
<text xml:space="preserve" text-anchor="middle" x="186.83" y="-15.9" font-family="Times,serif" font-size="18.00">counties (2653)</text>
</g>
<!-- mean_flpr -->
<g id="node1" class="node">
<title>mean_flpr</title>
<polygon fill="none" stroke="black" points="237.58,-325.23 147.33,-325.23 147.33,-267.73 237.58,-267.73 237.58,-325.23"/>
<text xml:space="preserve" text-anchor="middle" x="192.45" y="-307.93" font-family="Times,serif" font-size="14.00">mean_flpr</text>
<text xml:space="preserve" text-anchor="middle" x="192.45" y="-291.43" font-family="Times,serif" font-size="14.00">~</text>
<text xml:space="preserve" text-anchor="middle" x="192.45" y="-274.93" font-family="Times,serif" font-size="14.00">Deterministic</text>
</g>
<!-- flpr -->
<g id="node4" class="node">
<title>flpr</title>
<ellipse fill="lightgrey" stroke="black" cx="173.45" cy="-179.16" rx="28.81" ry="40.66"/>
<text xml:space="preserve" text-anchor="middle" x="173.45" y="-190.61" font-family="Times,serif" font-size="14.00">flpr</text>
<text xml:space="preserve" text-anchor="middle" x="173.45" y="-174.11" font-family="Times,serif" font-size="14.00">~</text>
<text xml:space="preserve" text-anchor="middle" x="173.45" y="-157.61" font-family="Times,serif" font-size="14.00">Beta</text>
</g>
<!-- mean_flpr&#45;&gt;flpr -->
<g id="edge5" class="edge">
<title>mean_flpr&#45;&gt;flpr</title>
<path fill="none" stroke="black" d="M187.8,-267.27C185.95,-256.02 183.76,-242.74 181.66,-229.98"/>
<polygon fill="black" stroke="black" points="185.17,-229.75 180.09,-220.45 178.26,-230.89 185.17,-229.75"/>
</g>
<!-- childcare_burden -->
<g id="node2" class="node">
<title>childcare_burden</title>
<path fill="lightgrey" stroke="black" d="M229.33,-442.54C229.33,-442.54 143.58,-442.54 143.58,-442.54 137.58,-442.54 131.58,-436.54 131.58,-430.54 131.58,-430.54 131.58,-397.04 131.58,-397.04 131.58,-391.04 137.58,-385.04 143.58,-385.04 143.58,-385.04 229.33,-385.04 229.33,-385.04 235.33,-385.04 241.33,-391.04 241.33,-397.04 241.33,-397.04 241.33,-430.54 241.33,-430.54 241.33,-436.54 235.33,-442.54 229.33,-442.54"/>
<text xml:space="preserve" text-anchor="middle" x="186.45" y="-425.24" font-family="Times,serif" font-size="14.00">childcare_burden</text>
<text xml:space="preserve" text-anchor="middle" x="186.45" y="-408.74" font-family="Times,serif" font-size="14.00">~</text>
<text xml:space="preserve" text-anchor="middle" x="186.45" y="-392.24" font-family="Times,serif" font-size="14.00">Data</text>
</g>
<!-- childcare_burden&#45;&gt;mean_flpr -->
<g id="edge3" class="edge">
<title>childcare_burden&#45;&gt;mean_flpr</title>
<path fill="none" stroke="black" d="M187.92,-384.58C188.67,-370.1 189.6,-352.22 190.43,-336.44"/>
<polygon fill="black" stroke="black" points="193.9,-337.07 190.92,-326.91 186.91,-336.71 193.9,-337.07"/>
</g>
<!-- flpr_obs -->
<g id="node3" class="node">
<title>flpr_obs</title>
<path fill="lightgrey" stroke="black" d="M191.95,-102.5C191.95,-102.5 154.95,-102.5 154.95,-102.5 148.95,-102.5 142.95,-96.5 142.95,-90.5 142.95,-90.5 142.95,-57 142.95,-57 142.95,-51 148.95,-45 154.95,-45 154.95,-45 191.95,-45 191.95,-45 197.95,-45 203.95,-51 203.95,-57 203.95,-57 203.95,-90.5 203.95,-90.5 203.95,-96.5 197.95,-102.5 191.95,-102.5"/>
<text xml:space="preserve" text-anchor="middle" x="173.45" y="-85.2" font-family="Times,serif" font-size="14.00">flpr_obs</text>
<text xml:space="preserve" text-anchor="middle" x="173.45" y="-68.7" font-family="Times,serif" font-size="14.00">~</text>
<text xml:space="preserve" text-anchor="middle" x="173.45" y="-52.2" font-family="Times,serif" font-size="14.00">Data</text>
</g>
<!-- flpr&#45;&gt;flpr_obs -->
<g id="edge1" class="edge">
<title>flpr&#45;&gt;flpr_obs</title>
<path fill="none" stroke="black" d="M173.45,-138.18C173.45,-130.33 173.45,-122.1 173.45,-114.26"/>
<polygon fill="black" stroke="black" points="176.95,-114.29 173.45,-104.29 169.95,-114.29 176.95,-114.29"/>
</g>
<!-- b0 -->
<g id="node5" class="node">
<title>b0</title>
<ellipse fill="none" stroke="black" cx="300.45" cy="-413.79" rx="41.01" ry="40.66"/>
<text xml:space="preserve" text-anchor="middle" x="300.45" y="-425.24" font-family="Times,serif" font-size="14.00">b0</text>
<text xml:space="preserve" text-anchor="middle" x="300.45" y="-408.74" font-family="Times,serif" font-size="14.00">~</text>
<text xml:space="preserve" text-anchor="middle" x="300.45" y="-392.24" font-family="Times,serif" font-size="14.00">Normal</text>
</g>
<!-- b0&#45;&gt;mean_flpr -->
<g id="edge2" class="edge">
<title>b0&#45;&gt;mean_flpr</title>
<path fill="none" stroke="black" d="M272.92,-383.4C258.76,-368.28 241.38,-349.72 226.4,-333.73"/>
<polygon fill="black" stroke="black" points="229.24,-331.64 219.85,-326.73 224.13,-336.42 229.24,-331.64"/>
</g>
<!-- phi -->
<g id="node6" class="node">
<title>phi</title>
<ellipse fill="none" stroke="black" cx="57.45" cy="-296.48" rx="57.45" ry="40.66"/>
<text xml:space="preserve" text-anchor="middle" x="57.45" y="-307.93" font-family="Times,serif" font-size="14.00">phi</text>
<text xml:space="preserve" text-anchor="middle" x="57.45" y="-291.43" font-family="Times,serif" font-size="14.00">~</text>
<text xml:space="preserve" text-anchor="middle" x="57.45" y="-274.93" font-family="Times,serif" font-size="14.00">Exponential</text>
</g>
<!-- phi&#45;&gt;flpr -->
<g id="edge6" class="edge">
<title>phi&#45;&gt;flpr</title>
<path fill="none" stroke="black" d="M90.38,-262.74C106.58,-246.64 126.01,-227.32 142.01,-211.42"/>
<polygon fill="black" stroke="black" points="144.32,-214.05 148.95,-204.52 139.39,-209.09 144.32,-214.05"/>
</g>
<!-- b1 -->
<g id="node7" class="node">
<title>b1</title>
<ellipse fill="none" stroke="black" cx="400.45" cy="-413.79" rx="41.01" ry="40.66"/>
<text xml:space="preserve" text-anchor="middle" x="400.45" y="-425.24" font-family="Times,serif" font-size="14.00">b1</text>
<text xml:space="preserve" text-anchor="middle" x="400.45" y="-408.74" font-family="Times,serif" font-size="14.00">~</text>
<text xml:space="preserve" text-anchor="middle" x="400.45" y="-392.24" font-family="Times,serif" font-size="14.00">Normal</text>
</g>
<!-- b1&#45;&gt;mean_flpr -->
<g id="edge4" class="edge">
<title>b1&#45;&gt;mean_flpr</title>
<path fill="none" stroke="black" d="M369.5,-386.5C363.36,-381.8 356.84,-377.13 350.45,-373.13 317.9,-352.79 279.03,-334.11 247.99,-320.41"/>
<polygon fill="black" stroke="black" points="249.74,-317.35 239.18,-316.56 246.94,-323.76 249.74,-317.35"/>
</g>
</g>
</svg>
